# xmcd CD database file
#
# Track frame offsets:
#	180
#	16609
#	33579
#	52356
#
# Disc length: 970 seconds
#
# Revision: 0
# Processed by: cddbd v1.5.1PL0 Copyright (c) Steve Scherf et al.
# Submitted via: CDex 1.51
#
DISCID=2d03c804
DTITLE=Megaforce - To be continued ... [CD-Single)
DYEAR=1995
DGENRE=Jazz
TTITLE0=Always together
TTITLE1=Won't you stay with me
TTITLE2=Social disease
TTITLE3=Transmission of senses
EXTD=YEAR: 1995
EXTT0=
EXTT1=
EXTT2=
EXTT3=
PLAYORDER=
